<?xml version="1.0" encoding="UTF-8"?>
<svg xmlns="http://www.w3.org/2000/svg" viewBox="50 160 700 480" width="100%" height="100%">
  <path d="M498.74 294.79C494.83 294.84 490.76 293.73 486.87 293.24C477.67 292.09 468.43 290.93 459.18 290.2C448.23 289.34 437.24 288.59 426.27 288.18C420.64 287.98 414.54 288.59 409.05 287.49C407.03 277.69 407.17 267.3 405.78 257.37C404.94 251.43 404.09 245.47 402.93 239.58C402.29 236.3 401.21 233.09 401.03 229.77C408.5 228.63 417.07 230.8 424.3 232.78C447.64 239.15 467.89 254.1 483.4 272.39C487.52 277.25 497.59 288.97 498.74 294.79ZM381.74 231.6C385.08 242.53 386.02 254.25 387.29 265.57C388.07 272.62 389.59 280.41 389.01 287.49C383.9 288.47 378.4 288 373.18 288.21C362.4 288.65 351.57 289.28 340.82 290.23C331.58 291.04 322.34 292.06 313.13 293.24C308.81 293.79 304.29 295 299.97 294.79C302.22 288.42 307.52 282.31 311.71 277.03C324.22 261.24 339.79 247.25 358.25 238.79C365.12 235.63 374.11 231.18 381.74 231.6ZM632.33 338.29C626.28 335.19 620.64 331.32 614.48 328.37C597.12 320.06 579.22 313.59 560.77 308.17C551.78 305.53 542.61 303.31 533.45 301.33C530.24 300.63 524.18 300.59 521.58 298.5C519.47 296.8 518.14 292.56 516.7 290.24C512.63 283.69 508.32 277.3 503.54 271.25C491.8 256.39 479.44 247 464.69 235.62C472.78 234.87 491.84 241.24 500.33 243.71C538.12 254.68 574.04 273.55 602.94 300.42C611.62 308.5 619.69 317.64 626.29 327.5C628.32 330.54 632.16 334.65 632.33 338.29ZM332.79 236.14C329.55 240.12 322.2 243.91 317.98 247.48C308.76 255.28 300.38 264.1 293.07 273.73C288.82 279.32 284.88 285.16 281.29 291.2C280 293.37 278.46 297.96 276.2 299.18C272.46 301.19 266.58 301.21 262.45 302.18C252.32 304.55 242.26 307.18 232.28 310.13C216.15 314.88 200.61 321.13 185.39 328.24C179.81 330.84 174.71 334.44 169.13 336.99C169.36 333.22 173.38 328.88 175.59 325.73C182.05 316.52 189.53 308.08 197.67 300.32C224.57 274.68 258.39 257.13 293.48 245.67C302.55 242.71 324.05 235.66 332.79 236.14ZM389.97 301.37C390.56 313.55 391.16 325.72 391.75 337.9C385.73 339.9 375.22 338.53 368.58 338.54C353.24 338.56 337.9 338.55 322.56 338.53C315.48 338.52 307.17 337.38 300.3 338.97C300.3 340.64 300.3 342.3 300.3 343.97C293.74 342.19 287.19 340.41 280.63 338.63C281.89 331.48 285.05 324.14 287.96 317.5C288.84 315.52 289.79 311.51 291.53 310.18C293.35 308.78 296.69 309.03 298.84 308.67C305.01 307.64 311.22 306.6 317.44 305.97C334.01 304.29 350.48 302.55 367.12 301.74C374.42 301.38 382.82 299.95 389.97 301.37ZM507.4 310.07C512.02 318.03 516.5 328.82 517.98 337.9C511.68 340.05 492.52 338.5 484.75 338.53C469.16 338.57 453.58 338.49 437.99 338.52C429.41 338.53 420.15 339.47 411.69 338.2C411.14 325.92 410.59 313.65 410.03 301.37C418.3 299.72 434.9 301.73 443.84 302.39C458.5 303.47 473.1 304.79 487.67 306.79C494.07 307.67 501.31 307.92 507.4 310.07ZM268.99 314.52C266.15 322.52 263.3 330.53 260.46 338.53C243.39 338.53 226.33 338.53 209.27 338.53C206.57 344.71 209.62 356.89 208.07 364.2C203.39 365.58 198.2 365.6 193.36 366.31C185.96 367.39 178.54 368.63 171.22 370.16C166 371.25 159.07 374.48 153.99 373.7C157.72 365.04 165.63 357.96 173.05 352.42C191.88 338.35 214.56 329.41 236.93 322.71C246.25 319.92 259.51 314.92 268.99 314.52ZM529.32 314.46C537.83 314.51 551.16 319.3 559.61 321.82C581.56 328.36 603.33 336.77 622.41 349.63C631.38 355.67 640.86 363.67 645.45 373.7C640.5 374.34 629.65 370.38 624.05 369.28C614.08 367.33 600.94 366.89 591.73 364.2C591.73 355.64 591.73 347.09 591.73 338.53C573.85 338.53 555.96 338.53 538.08 338.53C535.16 330.51 532.24 322.48 529.32 314.46ZM208.48 379.75C208.48 383.49 208.48 387.23 208.48 390.97C210.36 390.97 212.25 390.97 214.14 390.97C214.14 396.92 214.14 402.87 214.14 408.82C212.27 408.82 210.4 408.82 208.52 408.82C208.52 414.65 208.52 420.47 208.52 426.3C203.64 426.66 198.43 425.07 193.61 424.12C183.66 422.15 173.47 420.15 163.96 416.51C160.36 415.13 153.36 413.06 151.51 409.26C149.82 405.81 150.67 395.68 151.35 391.96C156.33 388.28 163.92 387.15 169.86 385.85C182.43 383.09 195.6 380.36 208.48 379.75ZM591.74 379.97C604.79 379.87 624.1 384.24 636.88 387.69C641.92 389.05 648.91 389.97 649.84 395.99C650.39 399.53 649.55 405.99 647.51 408.98C645.29 412.24 640.63 414 637.12 415.39C628.07 418.97 618.51 421.25 608.98 423.16C603.67 424.22 597.48 426.51 592.15 425.67C591.97 420.2 593 413.95 591.44 408.77C587.68 408.69 581.86 409.84 578.39 408.38C576.31 407.51 571.18 400.61 569.94 398.54C571.46 396.51 574.07 392.31 576.42 391.26C579.7 389.78 587.76 391.08 591.74 390.67C591.74 387.1 591.74 383.54 591.74 379.97ZM646.21 427.03C646.22 430.18 645.12 433.32 644.11 436.33C640.07 448.41 637.06 451.68 627.02 459.35C606.48 475.04 580.55 484.55 555.85 491.27C548.27 493.33 540.75 495.39 533.08 497.06C529.82 497.77 526.42 499.11 523.16 498.63C528.68 486.15 533.6 473.92 538.07 461.02C556.09 461.02 574.1 461.02 592.11 461.02C592.11 454.32 592.11 447.62 592.11 440.91C595.46 439.58 599.18 439.4 602.71 438.7C610.13 437.22 617.53 435.63 624.85 433.72C629.87 432.41 642.32 427.22 646.21 427.03ZM154.52 427.47C163.88 430.43 173.06 433.57 182.65 435.78C191.2 437.75 200.05 438.72 208.52 440.91C208.52 447.62 208.52 454.32 208.52 461.02C225.95 461.02 243.39 461.02 260.82 461.02C263.17 469.16 266.03 477.19 269.34 484.99C271.2 489.4 274.33 493.98 275.27 498.63C268.45 498.75 253.97 494.11 246.94 492.06C222.14 484.84 197.34 476.36 175.93 461.51C165.38 454.2 160.68 449.95 156.76 437.5C155.75 434.31 154.13 430.77 154.52 427.47ZM300.28 455.53C300.28 457.36 300.28 459.19 300.28 461.02C330.73 461.02 361.18 461.02 391.63 461.02C390.75 477.45 389.87 493.89 388.99 510.32C382.69 511.81 375.09 510.4 368.58 510.15C352.71 509.55 336.86 508.19 321.1 506.28C316.63 505.74 301.33 504.83 298.25 502.83C295.64 501.13 293.79 495.29 292.48 492.55C287.61 482.4 283.7 472.1 280.27 461.37C286.94 459.42 293.61 457.47 300.28 455.53ZM469.41 457.04C470.01 457.96 470.18 460.22 471.03 460.8C472.45 461.78 482.47 461.02 484.75 461.02C494.8 461.02 508.46 459.62 518.04 461.37C516.5 471.89 510.86 483.16 506.08 492.6C504.62 495.47 502.95 500.92 500.37 502.92C498.64 504.27 495.62 504.01 493.56 504.33C488.2 505.14 482.82 505.71 477.46 506.46C455.29 509.57 431.89 511.37 409.5 510.78C410.33 492.85 411.17 474.92 412.01 456.99C416.06 457.65 420.01 459.98 424.15 460.86C438.89 463.99 455.6 463.52 469.41 457.04ZM618.54 481.83C617.15 485.34 613.41 488.56 610.8 491.35C604.19 498.44 597 504.85 589.5 510.98C563.72 532.08 532.05 546.85 500.26 556.24C489.58 559.39 476.09 564.21 465.02 564.45C468.17 560.96 473.25 558.48 477.01 555.55C484.62 549.62 491.53 542.79 497.97 535.61C502.12 530.98 506.02 526.02 509.57 520.91C510.81 519.12 512.3 515.66 514.2 514.59C517.91 512.5 523.93 512.59 528.08 511.71C538.97 509.39 549.78 506.74 560.51 503.8C573.44 500.27 586.11 495.71 598.55 490.76C604.51 488.39 612.7 483.05 618.54 481.83ZM332.97 563.65C328.77 564.69 322.96 562.39 318.72 561.35C309.11 559.01 299.66 556.36 290.27 553.25C252.01 540.56 206.09 515.76 181.84 482.56C184.56 482.6 187.23 484.51 189.76 485.68C195.14 488.17 200.58 490.53 206.11 492.71C221.85 498.89 238.17 503.87 254.61 507.79C261.92 509.53 269.25 511.17 276.61 512.66C279.08 513.16 282.9 513.1 284.94 514.68C287.26 516.48 289.01 520.45 290.7 522.85C293.98 527.51 297.68 531.91 301.42 536.19C310.81 546.93 321.8 554.99 332.97 563.65ZM387.61 524.2C388.4 534.05 385.55 545.1 384.06 554.86C383.4 559.21 382.98 565.21 380.27 568.7C358.07 563.59 338.45 551.77 322.55 535.53C317.63 530.51 311.47 524.72 308.38 518.36C312.86 517.84 317.84 519.25 322.35 519.78C328.98 520.55 335.64 521.11 342.28 521.73C352.48 522.68 362.74 523.15 372.97 523.65C377.81 523.88 382.82 523.51 387.61 524.2ZM489.91 518.36C488.07 524.33 478.74 532.87 474.16 537.37C460.07 551.23 442.94 562.13 423.8 567.34C416.82 569.24 408.44 571.36 401.23 570.23C402.07 561.41 404.79 552.55 405.86 543.66C406.6 537.51 406.12 529.95 408.35 524.2C414.03 523.62 419.85 523.92 425.57 523.7C435.81 523.32 446.05 522.69 456.26 521.84C463.22 521.26 470.19 520.63 477.14 519.82C481.29 519.34 485.75 518.18 489.91 518.36Z" fill="#4d9292" fill-rule="evenodd" stroke="#4d9292" stroke-width="0.25" stroke-linejoin="round"/>
  <path d="M376.11 213.49C382.3 211.91 389.92 212.94 396.35 212.94C410.96 212.93 425.1 213.35 439.45 214.93C441.57 215.17 443.86 214.62 445.95 215.06C458.09 217.67 470.85 218.13 483.07 221.02C495.51 223.96 508.05 227.34 520.38 231.14C523.58 232.13 526.59 233.66 529.7 234.83C538.25 238.07 547.3 240.66 555.41 245.06C559.61 247.33 563.89 249.77 568.24 251.77C575.94 255.29 583.83 259.55 590.84 264.33C593.66 266.27 596.29 268.65 599.14 270.59C611.76 279.17 624.34 289.35 634.07 301.43C636.08 303.93 638.46 305.84 640.18 308.5C642.6 312.25 646.12 315.43 648.53 319.15C653.8 327.27 659.28 335.87 662.98 344.88C668.49 358.31 670.98 371.03 673.97 384.86C674.71 388.27 673.8 392.15 674.07 395.62C674.46 400.75 675.05 410.18 673.97 415.14C672.23 423.17 671.12 431.25 668.92 439.27C667.59 444.14 664.92 448.68 663.29 453.46C660.48 461.71 653.54 474.96 647.89 481.66C644.91 485.21 642.11 489.19 639.48 493.02C637.55 495.84 634.5 498.46 632.31 501.12C628.6 505.64 623.9 509.53 619.43 513.18C617.59 514.68 616.21 516.85 614.27 518.22C606.35 523.84 598.86 530.18 590.84 535.67C571.79 548.67 542.34 562.03 520.37 568.86C515.21 570.46 509.84 571.59 504.67 573.12C497.58 575.21 490.25 577.29 483.07 578.98C477.79 580.23 472.23 580.68 467.04 581.96C465.7 582.29 464.23 581.91 462.86 582.2C457.29 583.35 451.54 583.95 445.98 584.94C439.32 586.14 432.29 585.04 425.6 586.09C415.84 587.64 405.6 587.07 395.62 587.06C389.74 587.05 383.16 587.86 377.35 586.96C376.07 586.76 375.01 586.16 373.7 586.04C367.19 585.45 360.45 586.08 354.02 584.94C342.13 582.83 328.81 581.9 317.19 578.92C285.26 570.7 253.41 561.37 224.24 544.65C195.37 528.1 167.66 506.16 149.42 477.82C145.9 472.33 143.08 466.54 139.96 460.85C136.36 454.27 133.05 446.48 131.08 439.28C128.89 431.28 127.59 423.23 126.02 415.15C125.4 411.96 126.08 408.36 125.9 405.11C125.36 395.21 125.99 385.51 127.92 375.87C128.15 374.76 127.86 373.59 128.19 372.48C129.27 368.75 129.99 364.58 131.08 360.72C135.24 346.01 143.16 331.91 151.47 319.14C165.71 297.25 187.9 278.85 209.17 264.34C210.23 263.61 211.64 263.39 212.72 262.7C220.76 257.52 229.13 253.42 237.58 248.81C265.44 233.61 296.44 225.84 326.97 219.14C328.36 218.84 329.86 219.26 331.24 218.94C341.98 216.49 353.15 215.42 364.2 214.1C368.16 213.62 372.25 214.48 376.11 213.49ZM386.85 218.78C386.16 222.06 388.03 226.68 383.78 226.85C384.52 230.88 386.03 234.84 386.84 238.91C388.12 245.36 389.02 251.96 389.8 258.49C390.93 268.06 390.64 278.38 392.79 287.75C396.97 287.75 401.14 287.75 405.32 287.75C405.51 282.32 404.61 276.83 404.11 271.42C402.92 258.69 401.33 245.81 398.24 233.4C396.76 227.42 394.6 217.85 386.85 218.78ZM517.08 297.72C515.14 290.37 507.1 280.7 502.42 274.56C484.21 250.68 459.19 230.96 430.01 222.7C421.41 220.27 403.96 216.4 395.54 218.81C397.03 221.5 398.51 224.19 400 226.88C408.12 227.83 416.09 228.23 424.07 230.27C443.84 235.31 461.54 246.61 476.2 260.59C483.42 267.46 490.02 275.29 495.65 283.52C497.44 286.12 501.21 293.92 503.48 295.39C505.53 296.72 514.52 297.85 517.08 297.72ZM659.36 362.72C659.92 357.01 655.58 349.65 653.14 344.47C645.45 328.13 634.62 313.25 622.05 300.33C582.66 259.87 528.28 236.26 473.56 225.35C459 222.45 444.36 221.36 429.67 219.54C434.35 222.81 441.19 223.76 446.45 226.09C450.38 227.84 454.3 230.56 458.43 231.72C467.08 234.15 476.32 234.91 485.07 237.1C499.21 240.64 513.12 244.99 526.7 250.29C559.87 263.23 591.86 282.89 615.78 309.55C621.55 315.98 627.02 322.85 631.64 330.18C634.18 334.21 636.19 339.4 639.26 343C640.91 344.94 643.38 346.28 645.31 347.93C650.48 352.33 655.45 357.15 659.36 362.72ZM367.91 220.27C362.19 218.96 355.08 220.95 349.33 221.75C335.24 223.71 321.38 226.27 307.59 229.75C256.13 242.76 206.1 268.08 170.9 308.59C159.48 321.74 145.14 342.97 141.37 360.06C145.38 357.43 148.42 352.87 152.09 349.7C155.26 346.96 160.07 344.53 162.53 341.16C167.81 333.93 171.67 325.75 177.23 318.61C188.72 303.88 202.67 291.14 217.83 280.29C239.63 264.71 264.42 252.51 289.92 244.32C299.47 241.26 309.15 238.32 318.95 236.17C325.8 234.67 333.16 233.99 339.86 232.01C344.04 230.77 348.12 227.91 352.12 226.12C357.26 223.8 362.71 222.41 367.91 220.27ZM378.81 220.36C346.27 225.53 317.81 247.33 297.7 272.5C291.62 280.12 285.06 288.72 281.21 297.72C283.84 298.08 292.98 297.05 295.28 295.61C297.71 294.08 299.74 288.76 301.32 286.33C305.39 280.11 310.04 274.14 314.98 268.59C326.89 255.21 341.45 243.6 357.87 236.27C365.17 233.01 372.86 231.5 380.27 228.77C379.79 225.97 379.3 223.17 378.81 220.36ZM498.74 294.79C497.59 288.97 487.52 277.25 483.4 272.39C467.89 254.1 447.64 239.15 424.3 232.78C417.07 230.8 408.5 228.63 401.03 229.77C401.21 233.09 402.29 236.3 402.93 239.58C404.09 245.47 404.94 251.43 405.78 257.37C407.17 267.3 407.03 277.69 409.05 287.49C414.54 288.59 420.64 287.98 426.27 288.18C437.24 288.59 448.23 289.34 459.18 290.2C468.43 290.93 477.67 292.09 486.87 293.24C490.76 293.73 494.83 294.84 498.74 294.79ZM381.74 231.6C374.11 231.18 365.12 235.63 358.25 238.79C339.79 247.25 324.22 261.24 311.71 277.03C307.52 282.31 302.22 288.42 299.97 294.79C304.29 295 308.81 293.79 313.13 293.24C322.34 292.06 331.58 291.04 340.82 290.23C351.57 289.28 362.4 288.65 373.18 288.21C378.4 288 383.9 288.47 389.01 287.49C389.59 280.41 388.07 272.62 387.29 265.57C386.02 254.25 385.08 242.53 381.74 231.6ZM632.33 338.29C632.16 334.65 628.32 330.54 626.29 327.5C619.69 317.64 611.62 308.5 602.94 300.42C574.04 273.55 538.12 254.68 500.33 243.71C491.84 241.24 472.78 234.87 464.69 235.62C479.44 247 491.8 256.39 503.54 271.25C508.32 277.3 512.63 283.69 516.7 290.24C518.14 292.56 519.47 296.8 521.58 298.5C524.18 300.59 530.24 300.63 533.45 301.33C542.61 303.31 551.78 305.53 560.77 308.17C579.22 313.59 597.12 320.06 614.48 328.37C620.64 331.32 626.28 335.19 632.33 338.29ZM332.79 236.14C324.05 235.66 302.55 242.71 293.48 245.67C258.39 257.13 224.57 274.68 197.67 300.32C189.53 308.08 182.05 316.52 175.59 325.73C173.38 328.88 169.36 333.22 169.13 336.99C174.71 334.44 179.81 330.84 185.39 328.24C200.61 321.13 216.15 314.88 232.28 310.13C242.26 307.18 252.32 304.55 262.45 302.18C266.58 301.21 272.46 301.19 276.2 299.18C278.46 297.96 280 293.37 281.29 291.2C284.88 285.16 288.82 279.32 293.07 273.73C300.38 264.1 308.76 255.28 317.98 247.48C322.2 243.91 329.55 240.12 332.79 236.14ZM664.47 384.27C666.5 373.92 653.27 358.79 646.12 352.22C622.12 330.21 588.67 318.3 557.83 309.75C496.37 292.7 431.44 287.75 367.85 290.76C320.71 292.99 273.19 299.44 228.16 313.91C200.88 322.68 171.85 334.08 150.99 354.45C144.39 360.9 133.51 374.18 134.79 383.97C136.26 383.23 148.7 376.39 149.11 375.97C150.85 374.18 151.68 371.07 153.07 368.96C156.22 364.18 160.08 359.96 164.32 356.13C178.06 343.71 195.93 334.69 213.22 328.34C296.84 297.61 393.23 292.65 481.12 303.72C525.17 309.27 570.51 318.45 610.15 339.28C621.66 345.33 632.9 352.83 641.51 362.67C643.8 365.29 645.93 368.12 647.63 371.16C648.46 372.64 649.01 374.67 650.2 375.9C651.78 377.54 655.01 378.24 657.06 379.27C659.74 380.64 662.15 382.38 664.47 384.27ZM389.97 301.37C382.82 299.95 374.42 301.38 367.12 301.74C350.48 302.55 334.01 304.29 317.44 305.97C311.22 306.6 305.01 307.64 298.84 308.67C296.69 309.03 293.35 308.78 291.53 310.18C289.79 311.51 288.84 315.52 287.96 317.5C285.05 324.14 281.89 331.48 280.63 338.63C287.19 340.41 293.74 342.19 300.3 343.97C300.3 342.3 300.3 340.64 300.3 338.97C307.17 337.38 315.48 338.52 322.56 338.53C337.9 338.55 353.24 338.56 368.58 338.54C375.22 338.53 385.73 339.9 391.75 337.9C391.16 325.72 390.56 313.55 389.97 301.37ZM406.36 301.03C402.12 301.03 397.87 301.03 393.63 301.03C394.29 313.48 394.95 325.92 395.62 338.36C399.57 338.71 404.18 339.07 407.92 337.9C407.4 325.61 406.88 313.32 406.36 301.03ZM507.4 310.07C501.31 307.92 494.07 307.67 487.67 306.79C473.1 304.79 458.5 303.47 443.84 302.39C434.9 301.73 418.3 299.72 410.03 301.37C410.59 313.65 411.14 325.92 411.69 338.2C420.15 339.47 429.41 338.53 437.99 338.52C453.58 338.49 469.16 338.57 484.75 338.53C492.52 338.5 511.68 340.05 517.98 337.9C516.5 328.82 512.02 318.03 507.4 310.07ZM286.76 310.87C282.37 311.71 277.99 312.55 273.61 313.39C269.59 319.39 265.51 331.42 264.53 338.55C268.58 338.55 272.63 338.55 276.68 338.55C279.74 333.32 280.93 326.55 283.23 320.88C284.51 317.72 286.73 314.21 286.76 310.87ZM524.93 313.33C521.43 312.16 515.3 310.17 511.78 311.19C515.19 320.21 518.6 329.22 522.01 338.24C525.74 338.78 530.54 339.15 534.04 337.9C532.94 331.14 528.86 318.9 524.93 313.33ZM268.99 314.52C259.51 314.92 246.25 319.92 236.93 322.71C214.56 329.41 191.88 338.35 173.05 352.42C165.63 357.96 157.72 365.04 153.99 373.7C159.07 374.48 166 371.25 171.22 370.16C178.54 368.63 185.96 367.39 193.36 366.31C198.2 365.6 203.39 365.58 208.07 364.2C209.62 356.89 206.57 344.71 209.27 338.53C226.33 338.53 243.39 338.53 260.46 338.53C263.3 330.53 266.15 322.52 268.99 314.52ZM529.32 314.46C532.24 322.48 535.16 330.51 538.08 338.53C555.96 338.53 573.85 338.53 591.73 338.53C591.73 347.09 591.73 355.64 591.73 364.2C600.94 366.89 614.08 367.33 624.05 369.28C629.65 370.38 640.5 374.34 645.45 373.7C640.86 363.67 631.38 355.67 622.41 349.63C603.33 336.77 581.56 328.36 559.61 321.82C551.16 319.3 537.83 314.51 529.32 314.46ZM225.27 443.84C234.29 445.13 244.03 444.17 253.15 444.17C267.36 444.17 282.88 445.97 295.68 438.5C301.27 435.25 305.96 430.43 308.69 424.53C316.01 408.74 315.79 379.75 302.91 366.68C288.43 351.99 265.29 355.28 246.58 355.28C240.89 355.29 230.17 353.9 225.27 356C225.27 362.04 225.27 368.08 225.27 374.12C227.18 374.12 229.09 374.12 231.01 374.12C231.01 391.28 231.01 408.45 231.01 425.61C229.1 425.61 227.18 425.61 225.27 425.61C225.27 431.69 225.27 437.76 225.27 443.84ZM393.67 355.3C368.17 355.3 342.67 355.3 317.17 355.3C317.17 361.56 317.17 367.81 317.17 374.07C319.08 374.07 320.99 374.07 322.9 374.07C322.9 391.22 322.9 408.37 322.9 425.53C320.99 425.53 319.08 425.53 317.17 425.53C317.17 431.74 317.17 437.95 317.17 444.17C342.85 444.17 368.54 444.17 394.22 444.17C394.22 432.12 394.22 420.08 394.22 408.04C385.75 407.88 377.28 407.73 368.8 407.57C368.8 413.54 368.8 419.5 368.8 425.46C364.19 425.46 359.58 425.46 354.97 425.46C354.97 418.72 354.97 411.98 354.97 405.25C358.26 405.1 361.96 405.71 364.94 404.39C364.94 400.32 364.94 396.25 364.94 392.18C361.61 392.18 358.28 392.18 354.95 392.18C354.95 386.16 354.95 380.14 354.95 374.12C359.56 374.12 364.18 374.12 368.79 374.12C368.79 379.38 368.79 384.64 368.79 389.89C377.1 389.89 385.41 389.89 393.71 389.89C395.57 383.82 394.24 373.7 394.24 367.12C394.25 363.3 394.84 358.94 393.67 355.3ZM440.33 355.3C426.28 355.3 412.23 355.3 398.18 355.3C398.18 361.54 398.18 367.79 398.18 374.03C400 374.03 401.83 374.03 403.65 374.03C406.04 391.2 399.72 414.43 407.45 430.17C417.65 450.93 462.35 451.49 473.72 431.73C482.3 416.81 476.34 391.06 478.22 374.05C480.05 374.05 481.88 374.05 483.7 374.05C483.7 367.8 483.7 361.55 483.7 355.3C470.68 355.3 457.66 355.3 444.64 355.3C444.64 361.55 444.64 367.81 444.64 374.06C446.06 374.06 447.48 374.06 448.9 374.06C450.37 387.04 449.12 400.81 449.12 413.88C449.12 419.13 449.36 425.52 442.37 425.45C435.26 425.37 435.91 418.38 435.91 413.15C435.92 400.19 435.2 386.99 436.08 374.07C437.5 374.07 438.92 374.07 440.33 374.07C440.33 367.81 440.33 361.55 440.33 355.3ZM529.58 355.3C515.52 355.3 501.47 355.3 487.41 355.3C487.41 361.46 487.41 367.61 487.41 373.77C488.92 373.95 491.01 373.78 492.37 374.49C495.03 375.88 497.58 380.39 499.52 382.68C504.51 388.58 510.52 394.26 514.74 400.73C511.2 407.08 504.48 412.72 499.63 418.16C497.9 420.09 495.68 423.9 493.35 425.05C491.59 425.92 489.13 425.52 487.2 425.71C487.2 431.86 487.2 438.01 487.2 444.15C500.42 444.15 513.64 444.15 526.85 444.15C527.29 439.7 527.1 435.17 527.1 430.68C527.1 429.39 527.57 426.86 526.58 425.83C526.08 425.32 523.89 425.12 523.17 424.84C525.22 421.97 527.27 419.09 529.32 416.22C532.19 417.76 534.67 421.89 536.12 424.84C534.79 425.27 533.47 425.71 532.15 426.14C532.15 432.15 532.15 438.15 532.15 444.16C546.43 444.16 560.72 444.16 575.01 444.16C575.59 438.47 576.19 431.04 574.63 425.57C568.97 425.36 567.63 422.11 564.21 418.08C558.76 411.64 552.47 405.48 547.69 398.54C551.62 392.09 558.01 386.44 563.03 380.77C564.58 379.02 566.82 375.25 569 374.36C570.68 373.68 573.09 374 574.88 373.84C574.88 367.66 574.88 361.48 574.88 355.3C561.89 355.3 548.89 355.3 535.89 355.3C534.7 359.49 535.23 364.2 535.23 368.58C535.23 369.83 534.74 372.47 535.59 373.5C536.22 374.26 538.1 374.23 539.02 374.43C537.85 377.22 535.16 382.39 532.24 383.21C530.28 380.28 528.32 377.35 526.36 374.43C527.38 374.2 529.42 374.31 530.03 373.37C530.69 372.33 530.21 369.77 530.21 368.58C530.21 364.4 531.03 359.21 529.58 355.3ZM208.48 367.12C202.98 366.63 197.24 368.21 191.78 368.9C177.67 370.69 162.86 373.35 149.62 378.68C143.65 381.08 133.87 385.14 134.63 392.8C138.58 392.8 142.53 392.8 146.48 392.8C149.85 388.41 155.97 387.1 161.06 385.68C171.61 382.76 182.46 381.04 193.26 379.3C198.01 378.54 204.25 378.86 208.48 376.62C208.48 373.46 208.48 370.29 208.48 367.12ZM664.72 392.69C665.45 385.11 655.61 380.96 649.7 378.62C636.37 373.33 621.65 370.73 607.49 368.87C602.39 368.2 596.95 366.68 591.81 367.12C591.81 370.46 591.81 373.8 591.81 377.14C596.41 378.36 601.32 378.55 606.02 379.27C616.31 380.83 626.55 382.74 636.67 385.19C640.66 386.15 644.88 387.38 648.56 389.23C650.2 390.05 651.54 392.06 653.13 392.65C656.13 393.79 661.54 392.92 664.72 392.69ZM263.02 425.24C263.02 408.3 263.02 391.37 263.02 374.43C266.73 373.72 272.86 373.12 275.61 376.42C279.14 380.67 277.39 389.76 277.39 394.89C277.4 401.7 277.47 408.53 277.39 415.34C277.35 418.6 277.35 422.47 274.23 424.39C271.18 426.27 266.39 425.61 263.02 425.24ZM208.48 379.75C195.6 380.36 182.43 383.09 169.86 385.85C163.92 387.15 156.33 388.28 151.35 391.96C150.67 395.68 149.82 405.81 151.51 409.26C153.36 413.06 160.36 415.13 163.96 416.51C173.47 420.15 183.66 422.15 193.61 424.12C198.43 425.07 203.64 426.66 208.52 426.3C208.52 420.47 208.52 414.65 208.52 408.82C210.4 408.82 212.27 408.82 214.14 408.82C214.14 402.87 214.14 396.92 214.14 390.97C212.25 390.97 210.36 390.97 208.48 390.97C208.48 387.23 208.48 383.49 208.48 379.75ZM591.74 379.97C591.74 383.54 591.74 387.1 591.74 390.67C587.76 391.08 579.7 389.78 576.42 391.26C574.07 392.31 571.46 396.51 569.94 398.54C571.18 400.61 576.31 407.51 578.39 408.38C581.86 409.84 587.68 408.69 591.44 408.77C593 413.95 591.97 420.2 592.15 425.67C597.48 426.51 603.67 424.22 608.98 423.16C618.51 421.25 628.07 418.97 637.12 415.39C640.63 414 645.29 412.24 647.51 408.98C649.55 405.99 650.39 399.53 649.84 395.99C648.91 389.97 641.92 389.05 636.88 387.69C624.1 384.24 604.79 379.87 591.74 379.97ZM147.47 395.26C143.4 394.81 138.72 394.49 134.82 395.62C134.82 398.32 134.82 401.03 134.82 403.74C139.04 403.74 143.25 403.74 147.47 403.74C147.47 400.91 147.47 398.09 147.47 395.26ZM653.16 395.05C653.16 397.96 653.16 400.86 653.16 403.76C657.4 403.76 661.64 403.76 665.88 403.76C665.88 400.86 665.88 397.96 665.88 395.05C661.64 395.05 657.4 395.05 653.16 395.05ZM146.48 406.03C142.36 406.03 138.24 406.03 134.12 406.03C135.11 413.63 140.97 417.96 147.37 421.41C160.69 428.58 175.93 431.95 190.6 435.11C196.24 436.32 202.68 438.38 208.44 437.99C208.44 435.07 208.44 432.15 208.44 429.22C192.93 425.92 177.07 423.93 162.15 418.31C155.47 415.8 149.23 412.98 146.48 406.03ZM652.05 406.34C649.3 413.16 642.88 415.86 636.29 418.25C627.19 421.55 617.63 423.85 608.15 425.73C603.23 426.71 596.62 426.79 592.28 429.22C591.96 432.05 591.65 435.47 592.79 437.99C599.38 437.86 606.29 435.58 612.72 434.22C624.87 431.67 637.16 428.38 648.43 423.06C655.55 419.7 663.42 415 664.63 406.58C661.01 405.29 655.84 405.7 652.05 406.34ZM664.47 414.95C662.33 416.78 660.18 418.62 658.03 420.46C659.87 421.45 661.6 421.33 663.74 421.09C664.65 418.9 664.96 417.25 664.47 414.95ZM136.15 417.23C136.15 418.31 136.15 419.4 136.15 420.49C138.07 421.32 139.19 421.55 140.97 420.46C139.37 419.38 137.76 418.3 136.15 417.23ZM146.48 423.61C142.4 423.61 138.31 423.61 134.22 423.61C133.07 436.06 141.88 448.25 150.16 456.61C170.38 477.04 199.08 488.26 225.79 497.17C267.15 510.96 310.64 517.03 353.97 520.3C422.03 525.44 491.96 519.94 557.85 502.1C589.06 493.65 622.39 481.33 646.72 459.32C656.15 450.79 667.1 437.2 665.77 423.59C661.68 423.59 657.6 423.59 653.52 423.59C651.95 429.91 651.23 435.68 647.83 441.46C642.23 451.02 633.25 458.48 624.16 464.56C603.92 478.09 580.49 486.75 557.18 493.32C463.34 519.76 348.83 519.83 254.39 496.38C228.83 490.04 202.73 481.44 180.26 467.42C169.51 460.72 158.71 452.55 152.17 441.46C148.76 435.69 148.01 429.95 146.48 423.61ZM646.21 427.03C642.32 427.22 629.87 432.41 624.85 433.72C617.53 435.63 610.13 437.22 602.71 438.7C599.18 439.4 595.46 439.58 592.11 440.91C592.11 447.62 592.11 454.32 592.11 461.02C574.1 461.02 556.09 461.02 538.07 461.02C533.6 473.92 528.68 486.15 523.16 498.63C526.42 499.11 529.82 497.77 533.08 497.06C540.75 495.39 548.27 493.33 555.85 491.27C580.55 484.55 606.48 475.04 627.02 459.35C637.06 451.68 640.07 448.41 644.11 436.33C645.12 433.32 646.22 430.18 646.21 427.03ZM154.52 427.47C154.13 430.77 155.75 434.31 156.76 437.5C160.68 449.95 165.38 454.2 175.93 461.51C197.34 476.36 222.14 484.84 246.94 492.06C253.97 494.11 268.45 498.75 275.27 498.63C274.33 493.98 271.2 489.4 269.34 484.99C266.03 477.19 263.17 469.16 260.82 461.02C243.39 461.02 225.95 461.02 208.52 461.02C208.52 454.32 208.52 447.62 208.52 440.91C200.05 438.72 191.2 437.75 182.65 435.78C173.06 433.57 163.88 430.43 154.52 427.47ZM300.28 455.53C293.61 457.47 286.94 459.42 280.27 461.37C283.7 472.1 287.61 482.4 292.48 492.55C293.79 495.29 295.64 501.13 298.25 502.83C301.33 504.83 316.63 505.74 321.1 506.28C336.86 508.19 352.71 509.55 368.58 510.15C375.09 510.4 382.69 511.81 388.99 510.32C389.87 493.89 390.75 477.45 391.63 461.02C361.18 461.02 330.73 461.02 300.28 461.02C300.28 459.19 300.28 457.36 300.28 455.53ZM469.41 457.04C455.6 463.52 438.89 463.99 424.15 460.86C420.01 459.98 416.06 457.65 412.01 456.99C411.17 474.92 410.33 492.85 409.5 510.78C431.89 511.37 455.29 509.57 477.46 506.46C482.82 505.71 488.2 505.14 493.56 504.33C495.62 504.01 498.64 504.27 500.37 502.92C502.95 500.92 504.62 495.47 506.08 492.6C510.86 483.16 516.5 471.89 518.04 461.37C508.46 459.62 494.8 461.02 484.75 461.02C482.47 461.02 472.45 461.78 471.03 460.8C470.18 460.22 470.01 457.96 469.41 457.04ZM650.59 459.65C645.76 463.61 641.05 467.6 635.9 471.17C632.81 473.31 628.89 474.92 626.17 477.51C623.97 479.61 622.28 482.48 620.34 484.83C616.28 489.73 611.92 494.43 607.37 498.88C590.76 515.1 571.31 528.03 550.77 538.71C530.04 549.5 507.6 557.19 484.97 562.86C476.3 565.03 466.94 565.68 458.43 568.28C454.31 569.54 450.43 572.19 446.48 573.93C441.32 576.2 435.85 577.57 430.66 579.73C434.99 581.07 440.66 579.53 445.15 579.05C457.07 577.75 468.87 575.63 480.57 573.1C529.37 562.56 577.51 541.67 614.44 507.41C625.35 497.29 635.25 485.97 643.32 473.44C645.7 469.76 650.56 464.01 650.59 459.65ZM368.07 579.73C362.81 577.64 357.31 576.22 352.14 573.86C348.25 572.08 344.39 569.49 340.35 568.12C336.5 566.8 332.07 566.62 328.09 565.82C320.93 564.37 313.81 562.62 306.76 560.76C280.1 553.73 254.59 542.64 230.97 528.48C215.15 519 200.26 507.11 187.65 493.64C183.05 488.73 179.23 482.24 174.24 477.84C170.26 474.33 164.86 472 160.53 468.86C157.47 466.64 154 462.53 150.51 461.37C154.45 473.77 171.53 493.25 180.93 502.54C216.67 537.86 263.32 559.28 311.59 571.31C323.8 574.36 336.23 576.57 348.71 578.21C354.75 579 362.08 581.04 368.07 579.73ZM276.53 461.05C272.51 461.05 268.49 461.05 264.47 461.05C265.9 470.76 270.68 480.92 274.83 489.77C276.12 492.52 277.51 497.38 279.82 499.38C281.78 501.08 291.45 502.16 293.77 501.55C289.34 493.51 285.42 485.22 282.11 476.65C280.16 471.56 279.03 465.87 276.53 461.05ZM407.91 461.08C403.68 461.08 399.46 461.08 395.23 461.08C394.39 477.67 393.54 494.25 392.69 510.83C397.03 510.83 401.36 510.83 405.7 510.83C406.44 494.25 407.17 477.67 407.91 461.08ZM534.31 461.09C530.14 461.09 525.97 461.09 521.79 461.09C518.47 470.1 515.69 479.2 511.71 487.98C509.68 492.48 505.8 497.51 505.03 502.28C507.92 502.33 516.17 501.43 518.56 499.93C520.85 498.5 522.37 493.34 523.46 490.94C527.69 481.61 532.9 471.29 534.31 461.09ZM618.54 481.83C612.7 483.05 604.51 488.39 598.55 490.76C586.11 495.71 573.44 500.27 560.51 503.8C549.78 506.74 538.97 509.39 528.08 511.71C523.93 512.59 517.91 512.5 514.2 514.59C512.3 515.66 510.81 519.12 509.57 520.91C506.02 526.02 502.12 530.98 497.97 535.61C491.53 542.79 484.62 549.62 477.01 555.55C473.25 558.48 468.17 560.96 465.02 564.45C476.09 564.21 489.58 559.39 500.26 556.24C532.05 546.85 563.72 532.08 589.5 510.98C597 504.85 604.19 498.44 610.8 491.35C613.41 488.56 617.15 485.34 618.54 481.83ZM332.97 563.65C321.8 554.99 310.81 546.93 301.42 536.19C297.68 531.91 293.98 527.51 290.7 522.85C289.01 520.45 287.26 516.48 284.94 514.68C282.9 513.1 279.08 513.16 276.61 512.66C269.25 511.17 261.92 509.53 254.61 507.79C238.17 503.87 221.85 498.89 206.11 492.71C200.58 490.53 195.14 488.17 189.76 485.68C187.23 484.51 184.56 482.6 181.84 482.56C206.09 515.76 252.01 540.56 290.27 553.25C299.66 556.36 309.11 559.01 318.72 561.35C322.96 562.39 328.77 564.69 332.97 563.65ZM379.85 571.69C377.57 569.69 373.6 569.51 370.63 568.59C364.03 566.54 357.61 563.86 351.49 560.64C338.35 553.73 326.76 544.19 316.66 533.38C313.36 529.84 310.26 526.1 307.3 522.28C306.2 520.86 305.04 518.25 303.39 517.41C300.86 516.13 292.14 515.11 289.36 515.43C301.2 537.92 331.33 562.54 354.55 572.23C362.05 575.36 375.22 581.03 383.17 579.73C383.17 578.4 383.17 577.07 383.17 575.74C381.08 575.74 378.99 575.74 376.91 575.74C377.89 574.39 378.87 573.04 379.85 571.69ZM509.18 515.43C506.23 515.43 497.22 516.36 494.82 517.81C491.66 519.71 489.11 525.12 486.67 527.96C480.49 535.15 473.87 542.01 466.41 547.9C453.9 557.75 439.58 565.81 424.05 569.72C416.14 571.71 408.22 571.95 400.24 573.15C398.73 575.83 397.22 578.51 395.71 581.19C403.96 583.03 414.42 580.98 422.61 579.17C449.06 573.34 473.15 558.44 491.45 538.58C496.42 533.19 507.13 522.12 509.18 515.43ZM387.61 524.2C382.82 523.51 377.81 523.88 372.97 523.65C362.74 523.15 352.48 522.68 342.28 521.73C335.64 521.11 328.98 520.55 322.35 519.78C317.84 519.25 312.86 517.84 308.38 518.36C311.47 524.72 317.63 530.51 322.55 535.53C338.45 551.77 358.07 563.59 380.27 568.7C382.98 565.21 383.4 559.21 384.06 554.86C385.55 545.1 388.4 534.05 387.61 524.2ZM489.91 518.36C485.75 518.18 481.29 519.34 477.14 519.82C470.19 520.63 463.22 521.26 456.26 521.84C446.05 522.69 435.81 523.32 425.57 523.7C419.85 523.92 414.03 523.62 408.35 524.2C406.12 529.95 406.6 537.51 405.86 543.66C404.79 552.55 402.07 561.41 401.23 570.23C408.44 571.36 416.82 569.24 423.8 567.34C442.94 562.13 460.07 551.23 474.16 537.37C478.74 532.87 488.07 524.33 489.91 518.36ZM404.38 524.69C400.96 523.28 395.44 523.85 391.67 524.2C389.19 529.96 389.71 538.34 388.85 544.66C387.5 554.55 384.84 563.64 382.92 573.24C384.12 573.24 385.32 573.24 386.53 573.24C386.53 575.9 386.53 578.56 386.53 581.21C393.62 581.99 396.22 575.23 397.89 569.32C401.28 557.35 404.78 536.98 404.38 524.69Z" fill="#393536" fill-rule="evenodd" stroke="#393536" stroke-width="0.25" stroke-linejoin="round"/>
  <path d="M386.85 218.78C394.6 217.85 396.76 227.42 398.24 233.4C401.33 245.81 402.92 258.69 404.11 271.42C404.61 276.83 405.51 282.32 405.32 287.75C401.14 287.75 396.97 287.75 392.79 287.75C390.64 278.38 390.93 268.06 389.8 258.49C389.02 251.96 388.12 245.36 386.84 238.91C386.03 234.84 384.52 230.88 383.78 226.85C388.03 226.68 386.16 222.06 386.85 218.78ZM517.08 297.72C514.52 297.85 505.53 296.72 503.48 295.39C501.21 293.92 497.44 286.12 495.65 283.52C490.02 275.29 483.42 267.46 476.2 260.59C461.54 246.61 443.84 235.31 424.07 230.27C416.09 228.23 408.12 227.83 400 226.88C398.51 224.19 397.03 221.5 395.54 218.81C403.96 216.4 421.41 220.27 430.01 222.7C459.19 230.96 484.21 250.68 502.42 274.56C507.1 280.7 515.14 290.37 517.08 297.72ZM659.36 362.72C655.45 357.15 650.48 352.33 645.31 347.93C643.38 346.28 640.91 344.94 639.26 343C636.19 339.4 634.18 334.21 631.64 330.18C627.02 322.85 621.55 315.98 615.78 309.55C591.86 282.89 559.87 263.23 526.7 250.29C513.12 244.99 499.21 240.64 485.07 237.1C476.32 234.91 467.08 234.15 458.43 231.72C454.3 230.56 450.38 227.84 446.45 226.09C441.19 223.76 434.35 222.81 429.67 219.54C444.36 221.36 459 222.45 473.56 225.35C528.28 236.26 582.66 259.87 622.05 300.33C634.62 313.25 645.45 328.13 653.14 344.47C655.58 349.65 659.92 357.01 659.36 362.72ZM367.91 220.27C362.71 222.41 357.26 223.8 352.12 226.12C348.12 227.91 344.04 230.77 339.86 232.01C333.16 233.99 325.8 234.67 318.95 236.17C309.15 238.32 299.47 241.26 289.92 244.32C264.42 252.51 239.63 264.71 217.83 280.29C202.67 291.14 188.72 303.88 177.23 318.61C171.67 325.75 167.81 333.93 162.53 341.16C160.07 344.53 155.26 346.96 152.09 349.7C148.42 352.87 145.38 357.43 141.37 360.06C145.14 342.97 159.48 321.74 170.9 308.59C206.1 268.08 256.13 242.76 307.59 229.75C321.38 226.27 335.24 223.71 349.33 221.75C355.08 220.95 362.19 218.96 367.91 220.27ZM378.81 220.36C379.3 223.17 379.79 225.97 380.27 228.77C372.86 231.5 365.17 233.01 357.87 236.27C341.45 243.6 326.89 255.21 314.98 268.59C310.04 274.14 305.39 280.11 301.32 286.33C299.74 288.76 297.71 294.08 295.28 295.61C292.98 297.05 283.84 298.08 281.21 297.72C285.06 288.72 291.62 280.12 297.7 272.5C317.81 247.33 346.27 225.53 378.81 220.36ZM664.47 384.27C662.15 382.38 659.74 380.64 657.06 379.27C655.01 378.24 651.78 377.54 650.2 375.9C649.01 374.67 648.46 372.64 647.63 371.16C645.93 368.12 643.8 365.29 641.51 362.67C632.9 352.83 621.66 345.33 610.15 339.28C570.51 318.45 525.17 309.27 481.12 303.72C393.23 292.65 296.84 297.61 213.22 328.34C195.93 334.69 178.06 343.71 164.32 356.13C160.08 359.96 156.22 364.18 153.07 368.96C151.68 371.07 150.85 374.18 149.11 375.97C148.7 376.39 136.26 383.23 134.79 383.97C133.51 374.18 144.39 360.9 150.99 354.45C171.85 334.08 200.88 322.68 228.16 313.91C273.19 299.44 320.71 292.99 367.85 290.76C431.44 287.75 496.37 292.7 557.83 309.75C588.67 318.3 622.12 330.21 646.12 352.22C653.27 358.79 666.5 373.92 664.47 384.27ZM406.36 301.03C406.88 313.32 407.4 325.61 407.92 337.9C404.18 339.07 399.57 338.71 395.62 338.36C394.95 325.92 394.29 313.48 393.63 301.03C397.87 301.03 402.12 301.03 406.36 301.03ZM286.76 310.87C286.73 314.21 284.51 317.72 283.23 320.88C280.93 326.55 279.74 333.32 276.68 338.55C272.63 338.55 268.58 338.55 264.53 338.55C265.51 331.42 269.59 319.39 273.61 313.39C277.99 312.55 282.37 311.71 286.76 310.87ZM524.93 313.33C528.86 318.9 532.94 331.14 534.04 337.9C530.54 339.15 525.74 338.78 522.01 338.24C518.6 329.22 515.19 320.21 511.78 311.19C515.3 310.17 521.43 312.16 524.93 313.33ZM208.48 367.12C208.48 370.29 208.48 373.46 208.48 376.62C204.25 378.86 198.01 378.54 193.26 379.3C182.46 381.04 171.61 382.76 161.06 385.68C155.97 387.1 149.85 388.41 146.48 392.8C142.53 392.8 138.58 392.8 134.63 392.8C133.87 385.14 143.65 381.08 149.62 378.68C162.86 373.35 177.67 370.69 191.78 368.9C197.24 368.21 202.98 366.63 208.48 367.12ZM664.72 392.69C661.54 392.92 656.13 393.79 653.13 392.65C651.54 392.06 650.2 390.05 648.56 389.23C644.88 387.38 640.66 386.15 636.67 385.19C626.55 382.74 616.31 380.83 606.02 379.27C601.32 378.55 596.41 378.36 591.81 377.14C591.81 373.8 591.81 370.46 591.81 367.12C596.95 366.68 602.39 368.2 607.49 368.87C621.65 370.73 636.37 373.33 649.7 378.62C655.61 380.96 665.45 385.11 664.72 392.69ZM147.47 395.26C147.47 398.09 147.47 400.91 147.47 403.74C143.25 403.74 139.04 403.74 134.82 403.74C134.82 401.03 134.82 398.32 134.82 395.62C138.72 394.49 143.4 394.81 147.47 395.26ZM653.16 395.05C657.4 395.05 661.64 395.05 665.88 395.05C665.88 397.96 665.88 400.86 665.88 403.76C661.64 403.76 657.4 403.76 653.16 403.76C653.16 400.86 653.16 397.96 653.16 395.05ZM146.48 406.03C149.23 412.98 155.47 415.8 162.15 418.31C177.07 423.93 192.93 425.92 208.44 429.22C208.44 432.15 208.44 435.07 208.44 437.99C202.68 438.38 196.24 436.32 190.6 435.11C175.93 431.95 160.69 428.58 147.37 421.41C140.97 417.96 135.11 413.63 134.12 406.03C138.24 406.03 142.36 406.03 146.48 406.03ZM652.05 406.34C655.84 405.7 661.01 405.29 664.63 406.58C663.42 415 655.55 419.7 648.43 423.06C637.16 428.38 624.87 431.67 612.72 434.22C606.29 435.58 599.38 437.86 592.79 437.99C591.65 435.47 591.96 432.05 592.28 429.22C596.62 426.79 603.23 426.71 608.15 425.73C617.63 423.85 627.19 421.55 636.29 418.25C642.88 415.86 649.3 413.16 652.05 406.34ZM664.47 414.95C664.96 417.25 664.65 418.9 663.74 421.09C661.6 421.33 659.87 421.45 658.03 420.46C660.18 418.62 662.33 416.78 664.47 414.95ZM136.15 417.23C137.76 418.3 139.37 419.38 140.97 420.46C139.19 421.55 138.07 421.32 136.15 420.49C136.15 419.4 136.15 418.31 136.15 417.23ZM146.48 423.61C148.01 429.95 148.76 435.69 152.17 441.46C158.71 452.55 169.51 460.72 180.26 467.42C202.73 481.44 228.83 490.04 254.39 496.38C348.83 519.83 463.34 519.76 557.18 493.32C580.49 486.75 603.92 478.09 624.16 464.56C633.25 458.48 642.23 451.02 647.83 441.46C651.23 435.68 651.95 429.91 653.52 423.59C657.6 423.59 661.68 423.59 665.77 423.59C667.1 437.2 656.15 450.79 646.72 459.32C622.39 481.33 589.06 493.65 557.85 502.1C491.96 519.94 422.03 525.44 353.97 520.3C310.64 517.03 267.15 510.96 225.79 497.17C199.08 488.26 170.38 477.04 150.16 456.61C141.88 448.25 133.07 436.06 134.22 423.61C138.31 423.61 142.4 423.61 146.48 423.61ZM650.59 459.65C650.56 464.01 645.7 469.76 643.32 473.44C635.25 485.97 625.35 497.29 614.44 507.41C577.51 541.67 529.37 562.56 480.57 573.1C468.87 575.63 457.07 577.75 445.15 579.05C440.66 579.53 434.99 581.07 430.66 579.73C435.85 577.57 441.32 576.2 446.48 573.93C450.43 572.19 454.31 569.54 458.43 568.28C466.94 565.68 476.3 565.03 484.97 562.86C507.6 557.19 530.04 549.5 550.77 538.71C571.31 528.03 590.76 515.1 607.37 498.88C611.92 494.43 616.28 489.73 620.34 484.83C622.28 482.48 623.97 479.61 626.17 477.51C628.89 474.92 632.81 473.31 635.9 471.17C641.05 467.6 645.76 463.61 650.59 459.65ZM368.07 579.73C362.08 581.04 354.75 579 348.71 578.21C336.23 576.57 323.8 574.36 311.59 571.31C263.32 559.28 216.67 537.86 180.93 502.54C171.53 493.25 154.45 473.77 150.51 461.37C154 462.53 157.47 466.64 160.53 468.86C164.86 472 170.26 474.33 174.24 477.84C179.23 482.24 183.05 488.73 187.65 493.64C200.26 507.11 215.15 519 230.97 528.48C254.59 542.64 280.1 553.73 306.76 560.76C313.81 562.62 320.93 564.37 328.09 565.82C332.07 566.62 336.5 566.8 340.35 568.12C344.39 569.49 348.25 572.08 352.14 573.86C357.31 576.22 362.81 577.64 368.07 579.73ZM276.53 461.05C279.03 465.87 280.16 471.56 282.11 476.65C285.42 485.22 289.34 493.51 293.77 501.55C291.45 502.16 281.78 501.08 279.82 499.38C277.51 497.38 276.12 492.52 274.83 489.77C270.68 480.92 265.9 470.76 264.47 461.05C268.49 461.05 272.51 461.05 276.53 461.05ZM407.91 461.08C407.17 477.67 406.44 494.25 405.7 510.83C401.36 510.83 397.03 510.83 392.69 510.83C393.54 494.25 394.39 477.67 395.23 461.08C399.46 461.08 403.68 461.08 407.91 461.08ZM534.31 461.09C532.9 471.29 527.69 481.61 523.46 490.94C522.37 493.34 520.85 498.5 518.56 499.93C516.17 501.43 507.92 502.33 505.03 502.28C505.8 497.51 509.68 492.48 511.71 487.98C515.69 479.2 518.47 470.1 521.79 461.09C525.97 461.09 530.14 461.09 534.31 461.09ZM379.85 571.69C378.87 573.04 377.89 574.39 376.91 575.74C378.99 575.74 381.08 575.74 383.17 575.74C383.17 577.07 383.17 578.4 383.17 579.73C375.22 581.03 362.05 575.36 354.55 572.23C331.33 562.54 301.2 537.92 289.36 515.43C292.14 515.11 300.86 516.13 303.39 517.41C305.04 518.25 306.2 520.86 307.3 522.28C310.26 526.1 313.36 529.84 316.66 533.38C326.76 544.19 338.35 553.73 351.49 560.64C357.61 563.86 364.03 566.54 370.63 568.59C373.6 569.51 377.57 569.69 379.85 571.69ZM509.18 515.43C507.13 522.12 496.42 533.19 491.45 538.58C473.15 558.44 449.06 573.34 422.61 579.17C414.42 580.98 403.96 583.03 395.71 581.19C397.22 578.51 398.73 575.83 400.24 573.15C408.22 571.95 416.14 571.71 424.05 569.72C439.58 565.81 453.9 557.75 466.41 547.9C473.87 542.01 480.49 535.15 486.67 527.96C489.11 525.12 491.66 519.71 494.82 517.81C497.22 516.36 506.23 515.43 509.18 515.43ZM404.38 524.69C404.78 536.98 401.28 557.35 397.89 569.32C396.22 575.23 393.62 581.99 386.53 581.21C386.53 578.56 386.53 575.9 386.53 573.24C385.32 573.24 384.12 573.24 382.92 573.24C384.84 563.64 387.5 554.55 388.85 544.66C389.71 538.34 389.19 529.96 391.67 524.2C395.44 523.85 400.96 523.28 404.38 524.69Z" fill="#f5ad2d" fill-rule="evenodd" stroke="#f5ad2d" stroke-width="0.25" stroke-linejoin="round"/>
  <path d="M225.27 443.84C225.27 437.76 225.27 431.69 225.27 425.61C227.18 425.61 229.1 425.61 231.01 425.61C231.01 408.45 231.01 391.28 231.01 374.12C229.09 374.12 227.18 374.12 225.27 374.12C225.27 368.08 225.27 362.04 225.27 356C230.17 353.9 240.89 355.29 246.58 355.28C265.29 355.28 288.43 351.99 302.91 366.68C315.79 379.75 316.01 408.74 308.69 424.53C305.96 430.43 301.27 435.25 295.68 438.5C282.88 445.97 267.36 444.17 253.15 444.17C244.03 444.17 234.29 445.13 225.27 443.84ZM393.67 355.3C394.84 358.94 394.25 363.3 394.24 367.12C394.24 373.7 395.57 383.82 393.71 389.89C385.41 389.89 377.1 389.89 368.79 389.89C368.79 384.64 368.79 379.38 368.79 374.12C364.18 374.12 359.56 374.12 354.95 374.12C354.95 380.14 354.95 386.16 354.95 392.18C358.28 392.18 361.61 392.18 364.94 392.18C364.94 396.25 364.94 400.32 364.94 404.39C361.96 405.71 358.26 405.1 354.97 405.25C354.97 411.98 354.97 418.72 354.97 425.46C359.58 425.46 364.19 425.46 368.8 425.46C368.8 419.5 368.8 413.54 368.8 407.57C377.28 407.73 385.75 407.88 394.22 408.04C394.22 420.08 394.22 432.12 394.22 444.17C368.54 444.17 342.85 444.17 317.17 444.17C317.17 437.95 317.17 431.74 317.17 425.53C319.08 425.53 320.99 425.53 322.9 425.53C322.9 408.37 322.9 391.22 322.9 374.07C320.99 374.07 319.08 374.07 317.17 374.07C317.17 367.81 317.17 361.56 317.17 355.3C342.67 355.3 368.17 355.3 393.67 355.3ZM440.33 355.3C440.33 361.55 440.33 367.81 440.33 374.07C438.92 374.07 437.5 374.07 436.08 374.07C435.2 386.99 435.92 400.19 435.91 413.15C435.91 418.38 435.26 425.37 442.37 425.45C449.36 425.52 449.12 419.13 449.12 413.88C449.12 400.81 450.37 387.04 448.9 374.06C447.48 374.06 446.06 374.06 444.64 374.06C444.64 367.81 444.64 361.55 444.64 355.3C457.66 355.3 470.68 355.3 483.7 355.3C483.7 361.55 483.7 367.8 483.7 374.05C481.88 374.05 480.05 374.05 478.22 374.05C476.34 391.06 482.3 416.81 473.72 431.73C462.35 451.49 417.65 450.93 407.45 430.17C399.72 414.43 406.04 391.2 403.65 374.03C401.83 374.03 400 374.03 398.18 374.03C398.18 367.79 398.18 361.54 398.18 355.3C412.23 355.3 426.28 355.3 440.33 355.3ZM529.58 355.3C531.03 359.21 530.21 364.4 530.21 368.58C530.21 369.77 530.69 372.33 530.03 373.37C529.42 374.31 527.38 374.2 526.36 374.43C528.32 377.35 530.28 380.28 532.24 383.21C535.16 382.39 537.85 377.22 539.02 374.43C538.1 374.23 536.22 374.26 535.59 373.5C534.74 372.47 535.23 369.83 535.23 368.58C535.23 364.2 534.7 359.49 535.89 355.3C548.89 355.3 561.89 355.3 574.88 355.3C574.88 361.48 574.88 367.66 574.88 373.84C573.09 374 570.68 373.68 569 374.36C566.82 375.25 564.58 379.02 563.03 380.77C558.01 386.44 551.62 392.09 547.69 398.54C552.47 405.48 558.76 411.64 564.21 418.08C567.63 422.11 568.97 425.36 574.63 425.57C576.19 431.04 575.59 438.47 575.01 444.16C560.72 444.16 546.43 444.16 532.15 444.16C532.15 438.15 532.15 432.15 532.15 426.14C533.47 425.71 534.79 425.27 536.12 424.84C534.67 421.89 532.19 417.76 529.32 416.22C527.27 419.09 525.22 421.97 523.17 424.84C523.89 425.12 526.08 425.32 526.58 425.83C527.57 426.86 527.1 429.39 527.1 430.68C527.1 435.17 527.29 439.7 526.85 444.15C513.64 444.15 500.42 444.15 487.2 444.15C487.2 438.01 487.2 431.86 487.2 425.71C489.13 425.52 491.59 425.92 493.35 425.05C495.68 423.9 497.9 420.09 499.63 418.16C504.48 412.72 511.2 407.08 514.74 400.73C510.52 394.26 504.51 388.58 499.52 382.68C497.58 380.39 495.03 375.88 492.37 374.49C491.01 373.78 488.92 373.95 487.41 373.77C487.41 367.61 487.41 361.46 487.41 355.3C501.47 355.3 515.52 355.3 529.58 355.3ZM263.02 425.24C266.39 425.61 271.18 426.27 274.23 424.39C277.35 422.47 277.35 418.6 277.39 415.34C277.47 408.53 277.4 401.7 277.39 394.89C277.39 389.76 279.14 380.67 275.61 376.42C272.86 373.12 266.73 373.72 263.02 374.43C263.02 391.37 263.02 408.3 263.02 425.24Z" fill="#ffffff" fill-rule="evenodd" stroke="#ffffff" stroke-width="0.25" stroke-linejoin="round"/>
</svg>